<svg width="50" height="64" viewBox="0 0 50 64" fill="none" xmlns="http://www.w3.org/2000/svg">
<path d="M0 25C0 21.6863 2.68629 19 6 19H44C47.3137 19 50 21.6863 50 25V58C50 61.3137 47.3137 64 44 64H6C2.68629 64 0 61.3137 0 58V25Z" fill="#DB4537"/>
<path d="M28 5H22C16.4772 5 12 9.47715 12 15V36H7V15C7 6.71573 13.7157 0 22 0H28C36.2843 0 43 6.71573 43 15V36H38V15C38 9.47715 33.5228 5 28 5Z" fill="#DB4537"/>
<path fill-rule="evenodd" clip-rule="evenodd" d="M50 48.8672L32.1123 30.9795L15 48.0918L30.9082 64H44C47.3135 64 50 61.3135 50 58V48.8672Z" fill="#B93A2B"/>
<path d="M18.5355 31L35.5061 47.9706L31.9706 51.5061L15 34.5355L18.5355 31Z" fill="white"/>
<path d="M15.0004 47.9707L31.9709 31.0001L35.5065 34.5357L18.5359 51.5062L15.0004 47.9707Z" fill="white"/>
</svg>
